HIERARCHY
ROOT Hips
{
  OFFSET 0 0 0
  CHANNELS 6 Xposition Yposition Zposition Zrotation Yrotation Xrotation
  JOINT LeftThigh
  {
    OFFSET 8.409438 0 -5.917753
    CHANNELS 3 Zrotation Yrotation Xrotation
    JOINT LeftLeg
    {
      OFFSET 0 0 -42.358652
      CHANNELS 3 Zrotation Yrotation Xrotation
      JOINT LeftFoot
      {
        OFFSET 0 0 -39.357303
        CHANNELS 3 Zrotation Yrotation Xrotation
      }
    }
  }
  JOINT RightThigh
  {
    OFFSET -8.409438 0 -5.917753
    CHANNELS 3 Zrotation Yrotation Xrotation
    JOINT RightLeg
    {
      OFFSET 0 0 -42.358652
      CHANNELS 3 Zrotation Yrotation Xrotation
      JOINT RightFoot
      {
        OFFSET 0 0 -39.357303
        CHANNELS 3 Zrotation Yrotation Xrotation
      }
    }
  }
  JOINT SpineLow
  {
    OFFSET 0 0 4.719101
    CHANNELS 3 Zrotation Yrotation Xrotation
    JOINT SpineMid
    {
      OFFSET 0 0 12.899191
      CHANNELS 3 Zrotation Yrotation Xrotation
      JOINT Chest
      {
        OFFSET 0 0 12.899191
        CHANNELS 3 Zrotation Yrotation Xrotation
        JOINT LeftShoulder
        {
          OFFSET 7.550562 1.41573 9.438202
          CHANNELS 3 Zrotation Yrotation Xrotation
          JOINT LeftArm
          {
            OFFSET 9.155056 0 4.247191
            CHANNELS 3 Zrotation Yrotation Xrotation
            JOINT LeftForearm
            {
              OFFSET 0 0 25.771955
              CHANNELS 3 Zrotation Yrotation Xrotation
              JOINT LeftHand
              {
                OFFSET 0 0 25.197169
                CHANNELS 3 Zrotation Yrotation Xrotation
              }
            }
          }
        }
        JOINT RightShoulder
        {
          OFFSET -7.550562 1.41573 9.438202
          CHANNELS 3 Zrotation Yrotation Xrotation
          JOINT RightArm
          {
            OFFSET -9.155056 0 4.247191
            CHANNELS 3 Zrotation Yrotation Xrotation
            JOINT RightForearm
            {
              OFFSET 0 0 -25.771955
              CHANNELS 3 Zrotation Yrotation Xrotation
              JOINT RightHand
              {
                OFFSET 0 0 -25.197169
                CHANNELS 3 Zrotation Yrotation Xrotation
              }
            }
          }
        }
        JOINT Neck
        {
          OFFSET 0 0 15.101124
          CHANNELS 3 Zrotation Yrotation Xrotation
          JOINT Head
          {
            OFFSET 0 0 11.325843
            CHANNELS 3 Zrotation Yrotation Xrotation
            End Site
            {
              OFFSET 0 0 14.157303
            }
          }
        }
      }
    }
  }
}
MOTION
Frames: 16
Frame Time: 0.0
0.0  93.25843  0.0  19.500927  -3.251914  -120.733627  44.687845  -6.610602  -113.50417  3.997919  40.860163  91.413536  0.64787  -2.949921  -0.015012  -10.018443  14.748059  15.500587  3.438791  11.405769  15.613555  6.870171  4.325778  3.523857  1.37134  1.322932  3.191542  3.918675  3.426617  8.802918  3.918675  3.426617  8.802918  -11.203977  24.19515  7.229071  179.869757  41.017004  -148.2711  -11.434476  -26.199454  74.99929  16.048442  -45.392183  70.636034  3.465403  -6.015689  26.903022  86.400199  51.929943  27.078902  -34.619728  25.408816  -52.488144  79.489339  -7.713134  -16.237401  4.384352  6.256069  10.71733  3.176037  4.770863  7.985456  
0.0  93.25843  0.0  19.609228  -3.951721  -120.884698  45.586343  -6.958117  -113.556774  5.215186  41.768948  91.46759  1.3995  -3.386987  0.813568  -10.596489  14.552873  15.358708  2.988397  11.886294  15.534569  7.997718  5.589679  3.484425  1.143963  1.26821  3.386749  3.299876  3.297704  9.322164  3.299876  3.297704  9.322164  -8.763045  25.831104  7.850816  -177.96625  37.290265  -149.873471  -9.559208  -25.154868  72.895277  20.953361  -43.386557  72.985469  4.543318  -4.786743  27.29816  85.120947  49.824562  28.24619  -34.183904  20.920551  -53.478141  80.659304  -10.134327  -13.616287  4.968357  6.576535  9.251874  3.623196  5.009251  6.878146  
0.0  93.25843  0.0  19.503692  -4.616287  -121.035774  46.263134  -7.356758  -113.283428  5.848422  41.339778  92.265339  0.140268  -3.261626  1.033637  -9.964421  13.874734  15.351903  2.927213  12.743699  15.967809  8.582039  5.017258  3.356341  0.839149  1.236045  3.502038  2.468886  3.24855  9.621244  2.468886  3.24855  9.621244  -5.450407  28.435603  9.506541  -175.608828  35.09767  -150.794964  -8.01577  -23.393695  70.550088  26.730718  -41.922861  74.8181  6.059538  -3.882121  28.447728  85.242529  47.964297  30.346375  -33.904095  19.797968  -53.112245  83.17586  -11.595312  -14.109661  6.151117  6.354934  8.203889  4.523947  4.850271  6.083141  
0.0  93.25843  0.0  19.29376  -4.928828  -121.073145  46.079832  -7.359871  -112.234339  5.770275  40.661356  94.002326  -0.609849  -3.006791  0.595797  -8.184884  12.82956  15.681069  1.856137  13.710933  16.466826  9.486982  3.894577  3.630051  0.56065  1.249963  3.517935  1.711771  3.326612  9.651874  1.711771  3.326612  9.651873  -2.557117  30.321755  11.617819  -174.169321  32.558353  -152.590472  -7.710845  -21.375399  68.616624  33.309771  -40.53219  76.10441  7.751566  -3.766552  29.834601  85.2519  46.184031  32.183818  -33.217951  20.833438  -51.804598  84.305302  -12.059345  -14.137975  7.082592  5.83153  7.459173  5.236888  4.461487  5.522641  
0.0  93.25843  0.0  18.915512  -4.674244  -120.877887  45.250149  -7.449848  -110.66847  6.003064  39.804161  95.931507  -0.723253  -2.586504  0.313413  -6.832351  11.88636  15.997545  1.752462  13.140805  17.016898  9.092044  4.021943  3.869001  0.447331  1.18335  3.53409  1.393488  3.16117  9.688442  1.393488  3.16117  9.688442  -1.73871  31.543678  13.424134  -173.934271  28.850976  -154.887278  -8.258843  -20.2594  66.833279  39.877776  -39.615731  76.899224  8.311843  -3.400191  30.808102  84.656527  44.57961  33.760989  -32.922681  20.403298  -50.868683  83.723467  -12.130088  -13.468323  7.086705  5.598922  6.829755  5.24883  4.279617  5.053938  
0.0  93.25843  0.0  18.359765  -4.067252  -120.37213  44.058012  -7.806857  -108.619232  7.061605  39.051496  97.624713  -0.993652  -2.461948  0.407978  -6.901066  11.380424  15.669827  2.9206  11.642951  17.699665  7.875781  4.788894  4.062589  0.719498  1.094345  3.61544  2.126294  2.875827  9.919819  2.126294  2.875827  9.919819  -3.051661  30.880294  15.089522  -175.93169  24.528205  -156.895945  -9.412123  -19.847904  64.80898  45.610757  -39.538549  77.285348  6.176842  -3.328619  30.988791  83.66345  42.757308  34.448679  -33.244518  18.882625  -50.729236  83.051368  -12.684142  -12.118101  5.523804  5.268659  6.096426  4.087726  4.007403  4.521796  
0.0  93.25843  0.0  17.505635  -3.247242  -119.621371  42.586363  -8.359362  -105.954363  8.273049  38.77498  98.968514  -1.06092  -2.370376  0.458533  -8.187117  11.036553  14.747117  4.439117  10.601469  18.232257  6.611494  5.15507  4.237516  1.026595  1.05289  3.703807  2.961132  2.712567  10.171909  2.961132  2.712567  10.171909  -4.831497  29.696223  15.766738  -179.417643  21.166482  -159.105451  -10.863909  -20.381801  62.63355  50.332444  -40.604866  77.230464  3.59706  -3.948126  30.521187  82.679227  40.896425  34.819674  -33.801389  16.792892  -50.668265  82.55893  -12.824568  -11.227863  3.758289  4.75417  5.338748  2.775733  3.598918  3.972645  
0.0  93.25843  0.0  16.36959  -2.32794  -118.749183  40.939811  -8.881273  -102.638629  9.089761  38.806887  99.94133  -1.005733  -2.169131  0.315311  -9.743364  10.381594  13.705113  4.517042  10.724307  18.365442  6.546155  5.021081  4.236827  1.019799  0.888302  3.794801  2.919881  2.260926  10.411837  2.919881  2.260926  10.411837  -5.948654  29.80168  14.463806  177.035643  19.042142  -162.362483  -12.257127  -21.445376  61.050277  54.018132  -42.360279  76.955868  2.500308  -3.539802  29.669822  82.425875  39.43065  35.227619  -34.821619  14.74906  -50.800396  82.52654  -13.140922  -10.585077  2.873251  4.871364  4.56647  2.117302  3.675313  3.399926  
0.0  93.25843  0.0  15.052946  -1.524448  -117.767207  39.493513  -9.432005  -99.106179  9.907482  38.830447  100.923474  -0.985735  -2.028989  0.136679  -10.918308  9.185646  12.773146  3.114094  11.478835  18.123017  7.539647  4.749816  4.117616  0.77928  0.701771  3.777196  2.23406  1.79109  10.348328  2.23406  1.791089  10.348328  -5.206658  30.62647  14.702981  174.870603  17.95949  -164.104258  -12.503647  -22.81239  60.12177  56.85548  -44.519868  76.454285  2.913782  -2.886949  29.169318  82.606302  38.465243  35.669468  -35.810228  12.505904  -50.358266  83.19406  -12.774192  -10.05916  2.879645  5.156874  4.121902  2.123524  3.88737  3.065061  
0.0  93.25843  0.0  13.607461  -0.714977  -116.678329  38.124823  -10.162106  -95.547512  10.888502  38.54899  101.974886  -0.911844  -1.87539  0.019498  -11.570525  7.527113  12.076616  1.14469  12.170462  17.622699  8.584209  4.534069  3.912695  0.534453  0.46295  3.56253  1.52548  1.18359  9.748475  1.52548  1.18359  9.748475  -3.605414  30.613801  15.251761  173.553378  15.92144  -166.088053  -11.181127  -24.430255  59.460504  59.051395  -46.760816  75.70859  3.408605  -2.122  29.782381  82.59134  37.7437  35.864634  -36.818945  11.246049  -50.231768  83.672209  -12.839762  -10.052742  2.979052  5.493338  4.413983  2.192927  4.141868  3.28119  
0.0  93.25843  0.0  12.060375  0.04414  -115.491725  36.769415  -11.024007  -91.990105  11.705261  37.76125  102.944607  -1.011368  -1.648759  -0.078333  -11.792421  5.65919  11.381818  -0.266404  12.304477  17.109957  8.871434  4.406128  3.777235  0.402623  0.238516  3.353248  1.131154  0.594751  9.169678  1.131154  0.594751  9.169678  -2.958574  30.543196  15.467446  174.186052  14.751593  -167.517435  -8.777392  -25.553807  59.060994  60.872779  -48.803312  74.759847  3.314355  -1.571818  30.339468  82.197142  37.402387  35.707407  -37.04406  10.960034  -50.059746  83.553811  -12.948817  -9.707591  2.747627  5.616496  4.670447  2.016162  4.233739  3.474787  
0.0  93.25843  0.0  10.476555  0.797958  -114.208228  35.282976  -11.765497  -88.213187  11.916583  36.502762  103.557514  -1.369735  -1.352968  -0.24708  -11.873011  3.797848  10.523164  -0.840119  11.88844  16.570917  8.514855  4.237806  3.763172  0.396433  0.083747  3.335937  1.092779  0.1738  9.119561  1.092779  0.1738  9.119561  -3.503288  30.02371  14.875313  175.649977  14.765778  -167.883486  -6.431793  -25.92106  58.98905  62.522648  -50.341649  73.588297  2.584104  -1.502934  29.577  81.643631  37.521999  35.273255  -36.867094  11.185687  -50.010396  83.024074  -13.337962  -9.107902  2.075281  5.397121  4.173631  1.518437  4.062277  3.109572  
0.0  93.25843  0.0  8.881381  1.528966  -112.905315  33.810981  -12.412737  -84.154008  11.617935  35.123908  103.748169  -1.811063  -1.047311  -0.440675  -11.847092  1.872562  9.794328  -1.217793  11.264911  15.686708  7.892093  4.073441  3.796538  0.380881  -0.065513  3.349107  1.029751  -0.231346  9.153189  1.029751  -0.231346  9.153188  -4.078365  29.363992  13.818862  177.215605  15.338594  -168.122201  -4.891899  -25.62735  59.415194  63.960414  -51.327125  72.304018  2.087316  -1.491891  28.482376  81.16668  37.700853  34.7638  -36.587373  11.776816  -49.985853  81.918198  -13.813908  -8.264098  1.499636  5.142643  3.552949  1.094046  3.865874  2.65029  
0.0  93.25843  0.0  7.358693  2.129389  -111.573375  32.627535  -13.186782  -79.893958  11.172543  33.893711  103.530061  -2.145485  -0.761473  -0.583985  -11.622929  0.075289  9.004635  -1.752966  10.521109  14.59115  7.191639  3.926721  3.913957  0.322141  -0.225169  3.245926  0.84856  -0.657371  8.869501  0.84856  -0.657371  8.8695  -3.807376  28.841701  13.365459  178.114398  16.066957  -168.309007  -4.343014  -25.321528  60.135959  65.161684  -51.93188  70.65577  1.675142  -1.23531  27.771837  81.535622  37.576224  34.493818  -36.337762  12.72117  -49.873957  80.033766  -14.26328  -7.249823  1.276127  4.962214  3.336156  0.929381  3.728771  2.490179  
0.0  93.25843  0.0  5.801586  2.721673  -110.04794  31.625293  -14.242007  -75.787831  10.88234  32.93299  103.05808  -2.395018  -0.516854  -0.785434  -11.276651  -1.628852  8.010911  -2.73764  9.724793  13.300057  6.482262  3.70842  4.04132  0.280135  -0.402034  3.063993  0.713494  -1.13233  8.371084  0.713494  -1.13233  8.371084  -3.724132  28.40048  12.895051  178.339533  16.737088  -168.399545  -4.553406  -25.417661  60.810655  66.099318  -52.278726  68.43948  1.64452  -0.978631  27.608946  81.778451  37.729869  34.060656  -36.355412  13.654799  -49.644403  77.867819  -14.704933  -6.135789  1.037492  4.805458  3.264299  0.751966  3.609765  2.438621  
0.0  93.25843  0.0  4.319271  3.086036  -108.463417  30.90384  -15.482734  -71.757455  10.561886  32.083447  102.283082  -2.605364  -0.310336  -1.006982  -10.684912  -3.156896  6.92968  -4.071828  8.900457  11.889646  5.88795  3.446385  4.207135  0.351768  -0.579563  2.872346  0.891354  -1.623317  7.844099  0.891354  -1.623317  7.844099  -4.073815  27.897608  12.396081  177.937142  17.495763  -168.233998  -5.162805  -25.795192  61.425522  66.737095  -52.430383  65.714526  1.23612  -0.828175  27.35946  82.247964  37.883098  33.688709  -36.824528  14.339963  -49.392231  76.227822  -15.061529  -5.190269  0.826676  4.629479  3.308961  0.594575  3.47671  2.4741  
